<svg width="161" height="58" viewBox="0 0 161 58" fill="none" xmlns="http://www.w3.org/2000/svg">
<path d="M4 12.4521C4 12.6069 4.08153 16.3424 4.49819 23.9432C6.05063 36.9459 6.15115 39.5683 6.28115 43.8398C6.31905 45.64 6.35956 48.2941 6.54134 51.0789" stroke="#E7362A" stroke-width="3" stroke-linecap="round"/>
<path d="M14.6116 29.7646C14.2533 30.0075 11.8919 32.1474 10.3282 33.8493C8.28335 36.0747 7.75499 37.2067 7.15327 37.8273C6.85519 38.1347 8.99216 39.7467 13.8852 42.5931C16.5197 44.0133 19.462 45.3843 21.0699 46.1398C22.6778 46.8953 22.8622 46.9937 23.359 47.2484" stroke="#E7362A" stroke-width="3" stroke-linecap="round"/>
<path d="M38.8915 35.8574C36.9849 35.8574 32.6925 35.955 31.6735 36.3308C31.1306 36.531 30.621 36.8652 30.173 37.2128C29.3841 37.8249 29.392 41.2351 29.58 43.3304C29.6625 44.2494 31.0816 44.7311 32.7322 45.245C33.2718 45.3652 33.933 45.4777 35.1664 45.5357C36.3998 45.5937 38.1853 45.5937 40.0528 45.5698" stroke="#E7362A" stroke-width="3" stroke-linecap="round"/>
<path d="M41.3094 49.1142C41.3094 47.8176 41.2192 44.7059 40.5072 41.5503C39.9826 39.225 40.0888 37.8174 39.526 34.6652C39.2824 33.3012 38.7107 32.3602 37.918 31.2937C37.309 30.4743 36.7102 29.9039 36.3601 29.6386C34.5451 29.3506 31.1446 29.6039 29.7123 30.0704C29.1323 30.2637 28.8504 30.3692 28.2737 30.5533" stroke="#E7362A" stroke-width="3" stroke-linecap="round"/>
<path d="M50.8272 12.9688C49.8874 12.9688 47.7053 13.1524 47.04 13.7447C46.7099 14.0387 46.5455 14.8804 46.3221 17.1421C46.2312 18.8267 46.1858 21.6013 46.9721 27.8134C47.7583 34.0255 49.3775 43.591 51.3001 53.5989" stroke="#E7362A" stroke-width="3" stroke-linecap="round"/>
<path d="M53.6034 29.5215C53.5719 29.5215 52.597 29.5215 51.0207 29.5395C50.1558 29.5934 49.683 29.6695 49.2143 29.7556C48.9637 29.8026 48.687 29.8564 47.9265 29.9714" stroke="#E7362A" stroke-width="3" stroke-linecap="round"/>
<path d="M64.1362 16C62.5944 16 59.314 16.0965 58.9469 16.3303C58.7636 16.447 58.6459 16.6424 58.539 16.8629C58.432 17.0834 58.3546 17.3441 58.2994 19.4316C58.2442 21.519 58.2135 25.4252 58.9149 30.861C59.6162 36.2968 61.0505 43.1437 62.9567 50.4048" stroke="#E7362A" stroke-width="3" stroke-linecap="round"/>
<path d="M66.2641 34.5449C66.2332 34.5449 64.9377 34.5449 62.721 34.6055C61.7838 34.6661 61.2277 34.7873 60.8243 34.8609C60.4208 34.9344 60.1868 34.9567 59.4832 35.0862" stroke="#E7362A" stroke-width="3" stroke-linecap="round"/>
<path d="M71.4399 27.874C71.4399 27.905 71.452 29.8982 71.8425 35.6268C72.2209 39.3782 72.9653 44.8439 73.3495 47.9278C73.7336 51.0118 73.7349 51.5485 73.7919 52.5124" stroke="#E7362A" stroke-width="3" stroke-linecap="round"/>
<path d="M71.5179 20.1908C71.4253 20.4037 71.2161 21.0361 71.2887 21.4403C71.3211 21.6206 71.5921 21.6579 71.7526 21.5715C71.913 21.4851 72.0179 21.25 72.0851 21.0265C72.1522 20.803 72.1785 20.5982 71.9949 20" stroke="#E7362A" stroke-width="3" stroke-linecap="round"/>
<path d="M78.2737 27C78.2737 27.0304 78.4531 29.6067 78.7941 33.8133C78.9277 35.4617 79.0938 36.1129 79.3974 37.9728C80.1659 42.8791 80.6647 46.2615 80.7123 46.7371C80.7401 46.969 80.7749 47.1817 80.8133 47.7626" stroke="#E7362A" stroke-width="3" stroke-linecap="round"/>
<path d="M79.4478 29.9629C81.0007 29.9629 84.3613 30.0762 85.5028 30.4428C87.224 30.9957 87.9964 31.8679 88.7189 33.2476C89.1307 34.0341 89.5598 35.5288 90.2639 39.162C90.9679 42.7952 91.8416 48.5635 92.2922 51.6687C92.7429 54.7739 92.7439 55.0412 93.0041 55.2602" stroke="#E7362A" stroke-width="3" stroke-linecap="round"/>
<path d="M107.216 34.0449C105.724 34.0536 101.958 34.3576 100.101 35.2835C98.7199 35.9719 98.1579 36.7399 97.7262 37.4978C96.6973 39.3039 97.6443 43.1346 98.3798 44.6152C98.947 45.7572 99.7221 46.4262 100.181 46.6783C101.374 47.0475 103.802 47.1588 106.809 47.1583C107.919 47.1521 108.185 47.1338 108.507 47.0902" stroke="#E7362A" stroke-width="3" stroke-linecap="round"/>
<path d="M109.003 50.1639C109.003 50.1481 108.99 48.3603 108.948 45.4957C108.928 44.0733 108.17 40.6594 107.116 35.7636C106.465 32.7393 106.207 31.849 105.654 30.5805C105.11 29.3296 102.861 28.5412 101.102 28.068C100.529 28.0151 99.6698 27.981 99.0759 28.0115C98.482 28.0419 98.1796 28.1379 97.5317 28.4204" stroke="#E7362A" stroke-width="3" stroke-linecap="round"/>
<path d="M119.124 5C119.124 5.02335 119.124 5.04669 119.132 7.65619C119.14 10.2657 119.156 15.4606 119.443 21.3229C119.731 27.1851 120.29 33.5573 120.708 37.694C121.387 43.5388 121.655 45.839 121.666 47.1689C121.676 47.9583 121.696 48.9805 121.937 50.3922" stroke="#E7362A" stroke-width="3" stroke-linecap="round"/>
<path d="M125.055 20.8564C125.039 20.8564 122.753 20.8659 118.971 20.951C116.805 21.1683 115.531 21.5115 114.53 21.8314C114.122 21.954 113.915 21.996 113.274 22.0964" stroke="#E7362A" stroke-width="3" stroke-linecap="round"/>
<path d="M129.301 38.7757C129.944 38.7562 131.737 38.6465 134.068 38.2481C137.714 37.625 140.102 37.5975 141.918 37.4914C142.511 37.4567 142.409 37.2153 142.327 36.9686C141.646 34.9254 140.678 31.6267 139.781 30.4871C138.779 29.2125 136.908 28.5608 135.672 28.1487C134.447 27.7401 132.415 28.2584 131.381 28.6829C130.573 29.0147 130.251 30.0301 129.754 30.9522C129.315 31.7687 129.244 33.2203 129.283 38.4122C129.319 43.3291 130.437 45.0509 131.094 46.5388C131.658 47.8155 132.766 48.5754 133.926 49.1857C135.201 49.8569 137.422 49.7335 138.853 49.5052C140.05 49.3143 140.724 48.5538 141.381 47.803C142.018 47.0739 142.12 46.0903 142.425 45.2557C142.491 45.0468 142.542 44.8391 142.569 44.5786C142.595 44.3182 142.595 44.0113 142.815 43.7316" stroke="#E7362A" stroke-width="3" stroke-linecap="round"/>
<path d="M154.213 28.781C153.524 28.7483 150.984 29.1782 149.726 30.0074C148.946 30.5218 148.578 31.4588 147.765 33.3435C147.128 34.8179 147.22 39.3009 147.434 42.0318C147.561 43.652 149.209 44.7694 150.413 45.5716C152.293 46.3059 154.957 46.3666 156.878 46.2608C157.108 46.1913 157.279 46.0709 157.666 45.8372" stroke="#E7362A" stroke-width="3" stroke-linecap="round"/>
<path d="M157.503 49.8277C157.503 49.8196 157.503 49.8114 157.43 45.2985C157.357 40.7856 157.21 31.7681 157.113 26.9438C157.016 22.1195 156.973 21.7617 156.879 20.2781C156.785 18.7945 156.643 16.1958 156.447 13.7338C155.694 6.31984 155.518 4.9178 155.435 3.87653C155.403 3.44434 155.389 3.20747 155.324 3" stroke="#E7362A" stroke-width="3" stroke-linecap="round"/>
</svg>
