<svg width="59" height="69" viewBox="0 0 59 69" fill="none" xmlns="http://www.w3.org/2000/svg">
<path d="M27.5552 44.7313C28.3646 44.7313 30.6183 44.6212 33.739 44.0875C36.321 43.6459 39.6811 42.491 41.7148 41.6027C43.5444 40.8035 44.1942 39.7327 45.5341 36.6359C46.4648 34.4852 46.6585 32.5631 47.48 28.6918C47.817 27.1035 47.9453 24.3904 47.9279 21.1317C47.9193 19.5178 46.5464 16.8113 44.7621 13.1163C43.5933 10.696 42.024 9.22034 40.8578 8.05314C39.9838 7.17837 39.1591 6.43316 37.8003 5.52404C35.5959 4.04919 34.1273 3.99678 31.8131 3.43601C30.7924 3.18869 27.5069 3.03872 22.9774 3.00048C19.5242 2.97132 17.5019 4.28258 15.8903 5.21459C14.2344 6.17214 13.4409 7.08496 12.2711 8.48149C11.5227 9.3749 10.9403 10.5457 10.2866 11.7099C9.59598 12.9399 9.07716 13.9216 8.64939 14.8534C8.25042 15.7224 7.88383 17.0695 7.59428 18.3494C7.38193 19.288 7.31952 22.2693 8.13048 27.0772C8.41699 28.7758 9.26825 30.0076 10.1821 31.6947C11.0679 33.3299 11.8846 34.2825 13.4168 36.2705C14.4137 37.564 15.5612 39.066 17.4725 41.1394C18.5168 42.2722 20.0053 42.6282 21.6185 43.1624C23.1133 43.7039 24.8119 44.3091 25.5893 44.4468C26.112 44.5011 26.895 44.5237 27.7018 44.5469" stroke="white" stroke-width="3" stroke-linecap="round"/>
<path d="M42.3612 41.2146C42.3612 41.2314 43.0133 42.0324 45.1252 44.2424C48.6179 47.8975 51.3383 49.9095 51.8293 50.3669C54.314 52.6813 56.332 56.0434 56.5858 56.4689C57.3358 57.7264 51.1824 56.6171 46.8398 56.535C46.0648 56.5203 45.8417 56.5987 45.5545 56.8347C43.611 58.4311 42.6387 61.0596 41.9911 61.8971C41.8546 62.0735 41.5344 61.8853 41.2711 61.7139C41.0079 61.5424 40.7414 61.3037 39.3688 59.5577C37.9963 57.8118 35.5257 54.5657 33.9054 52.4158C30.5195 47.8725 29.4346 46.4937 28.6823 45.587C28.4241 45.2816 28.0649 44.8592 27.5482 44.2775" stroke="white" stroke-width="3" stroke-linecap="round"/>
<path d="M27.5482 44.2775C27.5363 44.6835 26.7068 47.9236 24.8022 53.8371C23.7234 57.1865 22.3341 61.2168 21.5949 63.4343C20.8557 65.6518 20.7877 65.9276 20.6816 65.9755C18.7554 66.846 18.5768 60.2504 17.8252 59.217C17.4248 58.6665 16.738 58.3659 16.1666 58.0913C15.0315 57.5458 12.0589 58.4043 6.20129 60.1954C5.34162 60.4582 7.31305 57.054 10.6372 52.131C14.1463 46.934 14.6771 45.8393 15.6678 44.42C15.9462 43.9731 16.2481 43.4545 16.4961 43.0284C16.7442 42.6022 16.9293 42.2841 17.2947 41.7422" stroke="white" stroke-width="3" stroke-linecap="round"/>
</svg>
